<svg xmlns="http://www.w3.org/2000/svg" xmlns:xlink="http://www.w3.org/1999/xlink" xml:space="preserve" style="shape-rendering:geometricPrecision;text-rendering:geometricPrecision;image-rendering:optimizeQuality;" viewBox="0 0 0.299496 0.26034999999999997" x="0px" y="0px" fill-rule="evenodd" clip-rule="evenodd"><defs><style type="text/css">
   
    .fil0 {fill:black}
   
  </style></defs><g><path class="fil0" d="M0.275701 0.103102l0 0.0865748c0,0.0102362 -0.00837008,0.0186024 -0.0186024,0.0186024 -0.00910236,0 -0.0182008,0 -0.0272992,0 -0.0102402,0 -0.0186063,-0.00836614 -0.0186063,-0.0186024 0,-0.00224409 0,-0.00448819 0,-0.00673228 -0.0413465,0 -0.082689,0 -0.124035,0 0,0.00224409 0,0.00448819 0,0.00673228 0,0.0102362 -0.00837008,0.0186024 -0.0185984,0.0186024 -0.00910236,0 -0.0182008,0 -0.0273031,0 -0.0102362,0 -0.0186024,-0.00836614 -0.0186024,-0.0186024l0 -0.0865748 -0.015311 0c-0.00700787,-0.00644488 -0.0113465,-0.0145039 -0.00193701,-0.0208031 0.00913386,-0.00335827 0.0173622,-5.11811e-005 0.0258937,0.00461811l0.0362165 -0.0640984c0.00576772,-0.0102165 0.00354331,-0.0102244 0.0147598,-0.0134803 0.0456063,-0.0132323 0.0912087,-0.0119528 0.136815,0.00102756 0.00752756,0.0021378 0.00598819,0.00225984 0.00989764,0.00916929l0.0383386 0.0678583c0.00883858,-0.00491732 0.0173228,-0.00856693 0.0267638,-0.00509449 0.00940945,0.00629921 0.00507087,0.0143583 -0.00193701,0.0208031l-0.0164528 0zm-0.141291 -0.0489173l0.00659055 -0.00659449 0.0496732 0.0496732c0.0321024,-0.00157087 0.0576929,-0.00485827 0.0608543,-0.00935433 -0.0148622,-0.0258622 -0.0235354,-0.0406969 -0.0383937,-0.0665551 -0.0464134,-0.0126811 -0.0815866,-0.0132913 -0.131433,0.00150787 -0.0124291,0.0227087 -0.0210354,0.0422047 -0.0334646,0.0649134 0.0124724,0.00911024 0.0767283,0.0117835 0.129768,0.0100039l-0.0435945 -0.0435945zm0.12328 0.0650354c-0.00971654,0.0395787 -0.0110394,0.0273386 -0.0643346,0.0392047 0.0162874,-0.0399488 0.0126417,-0.0308701 0.0643346,-0.0392047zm-0.218189 0c0.00971654,0.0395787 0.0110394,0.0273386 0.0643346,0.0392047 -0.0162874,-0.0399488 -0.0126417,-0.0308701 -0.0643346,-0.0392047z"/></g><text x="0" y="15.20828" fill="#000000" font-size="5px" font-weight="bold" font-family="'Helvetica Neue', Helvetica, Arial-Unicode, Arial, Sans-serif">Created by Yusuf Designer</text><text x="0" y="20.208280000000002" fill="#000000" font-size="5px" font-weight="bold" font-family="'Helvetica Neue', Helvetica, Arial-Unicode, Arial, Sans-serif">from the Noun Project</text></svg>